{"accessors":[{"name":"base_positions","componentType":5126,"count":4,"min":[-80.13739776611328,0,-80.16799926757812],"max":[80.13739776611328,0,80.16799926757812],"type":"VEC3","bufferView":0,"byteOffset":0},{"name":"base_normals","componentType":5126,"count":4,"min":[0,1,0],"max":[0,1,0],"type":"VEC3","bufferView":0,"byteOffset":253056},{"name":"base_0_indices","componentType":5123,"count":6,"min":[0],"max":[3],"type":"SCALAR","bufferView":1,"byteOffset":0},{"name":"slab_positions","componentType":5126,"count":3384,"min":[-25.639999389648438,5.303999900817871,-25.719999313354492],"max":[25.719999313354492,456.1199951171875,25.639999389648438],"type":"VEC3","bufferView":0,"byteOffset":48},{"name":"slab_normals","componentType":5126,"count":3384,"min":[-1,-1,-1],"max":[1,1,1],"type":"VEC3","bufferView":0,"byteOffset":253104},{"name":"slab_0_indices","componentType":5123,"count":6228,"min":[0],"max":[3383],"type":"SCALAR","bufferView":1,"byteOffset":12},{"name":"glass_positions","componentType":5126,"count":24,"min":[-26.75,64,-26.75],"max":[26.75,461.0010070800781,26.75],"type":"VEC3","bufferView":0,"byteOffset":40656},{"name":"glass_normals","componentType":5126,"count":24,"min":[-1,-0.04735320061445236,-1],"max":[1,0.04735320061445236,0.7063140273094177],"type":"VEC3","bufferView":0,"byteOffset":293712},{"name":"glass_0_indices","componentType":5123,"count":24,"min":[0],"max":[23],"type":"SCALAR","bufferView":1,"byteOffset":12468},{"name":"frame_positions","componentType":5126,"count":96,"min":[-26.75,63,-26.75],"max":[26.75,462,26.75],"type":"VEC3","bufferView":0,"byteOffset":40944},{"name":"frame_normals","componentType":5126,"count":96,"min":[-1,-0.04735330119729042,-1],"max":[1,0.04735330119729042,0.7063140273094177],"type":"VEC3","bufferView":0,"byteOffset":294000},{"name":"frame_0_indices","componentType":5123,"count":144,"min":[0],"max":[95],"type":"SCALAR","bufferView":1,"byteOffset":12516},{"name":"lattice_positions","componentType":5126,"count":8,"min":[-26.75,0,-26.75],"max":[-26.75,63,26.75],"type":"VEC3","bufferView":0,"byteOffset":42096},{"name":"lattice_normals","componentType":5126,"count":8,"min":[-1,0,0],"max":[-1,0,0],"type":"VEC3","bufferView":0,"byteOffset":295152},{"name":"lattice_0_indices","componentType":5123,"count":12,"min":[0],"max":[7],"type":"SCALAR","bufferView":1,"byteOffset":12804},{"name":"glass_1_positions","componentType":5126,"count":160,"min":[-26.75,0,-26],"max":[-26.75,63,26],"type":"VEC3","bufferView":0,"byteOffset":42192},{"name":"glass_1_0_indices","componentType":5123,"count":312,"min":[0],"max":[159],"type":"SCALAR","bufferView":1,"byteOffset":12828},{"name":"lattice_1_positions","componentType":5126,"count":980,"min":[-27,0,-26.75],"max":[26.75,63,26.75],"type":"VEC3","bufferView":0,"byteOffset":44112},{"name":"lattice_1_normals","componentType":5126,"count":980,"min":[-1,-1,-1],"max":[1,1,1],"type":"VEC3","bufferView":0,"byteOffset":295248},{"name":"lattice_1_0_indices","componentType":5123,"count":1632,"min":[0],"max":[979],"type":"SCALAR","bufferView":1,"byteOffset":13452},{"name":"glass_2_positions","componentType":5126,"count":160,"min":[26.75,0,-26],"max":[26.75,63,26],"type":"VEC3","bufferView":0,"byteOffset":55872},{"name":"glass_2_0_indices","componentType":5123,"count":312,"min":[0],"max":[159],"type":"SCALAR","bufferView":1,"byteOffset":16716},{"name":"lattice_2_positions","componentType":5126,"count":2676,"min":[-26.899999618530273,0,-26.899999618530273],"max":[27,63,26.899999618530273],"type":"VEC3","bufferView":0,"byteOffset":57792},{"name":"lattice_2_normals","componentType":5126,"count":2676,"min":[-1,-1,-1],"max":[1,1,1],"type":"VEC3","bufferView":0,"byteOffset":307008},{"name":"lattice_2_0_indices","componentType":5123,"count":4176,"min":[0],"max":[2675],"type":"SCALAR","bufferView":1,"byteOffset":17340},{"name":"glass_3_positions","componentType":5126,"count":160,"min":[-26,0,26.75],"max":[26,63,26.75],"type":"VEC3","bufferView":0,"byteOffset":89904},{"name":"glass_3_0_indices","componentType":5123,"count":312,"min":[0],"max":[159],"type":"SCALAR","bufferView":1,"byteOffset":25692},{"name":"lattice_3_positions","componentType":5126,"count":980,"min":[-26.75,0,-26.75],"max":[26.75,63,27],"type":"VEC3","bufferView":0,"byteOffset":91824},{"name":"lattice_3_normals","componentType":5126,"count":980,"min":[-1,-1,-1],"max":[1,1,1],"type":"VEC3","bufferView":0,"byteOffset":339120},{"name":"lattice_3_0_indices","componentType":5123,"count":1632,"min":[0],"max":[979],"type":"SCALAR","bufferView":1,"byteOffset":26316},{"name":"glass_4_positions","componentType":5126,"count":160,"min":[-26,0,-26.75],"max":[26,63,-26.75],"type":"VEC3","bufferView":0,"byteOffset":103584},{"name":"glass_4_0_indices","componentType":5123,"count":312,"min":[0],"max":[159],"type":"SCALAR","bufferView":1,"byteOffset":29580},{"name":"lattice_4_positions","componentType":5126,"count":972,"min":[-26,0,-27],"max":[26,63,-26.75],"type":"VEC3","bufferView":0,"byteOffset":105504},{"name":"lattice_4_normals","componentType":5126,"count":972,"min":[-1,-1,-1],"max":[1,1,1],"type":"VEC3","bufferView":0,"byteOffset":350880},{"name":"lattice_4_0_indices","componentType":5123,"count":1620,"min":[0],"max":[971],"type":"SCALAR","bufferView":1,"byteOffset":30204},{"name":"glass2_positions","componentType":5126,"count":4,"min":[-26.04210090637207,0,-10],"max":[-26.04210090637207,18.479999542236328,10],"type":"VEC3","bufferView":0,"byteOffset":117168},{"name":"glass2_normals","componentType":5126,"count":4,"min":[-1,0,0],"max":[-1,0,0],"type":"VEC3","bufferView":0,"byteOffset":362544},{"name":"glass2_0_indices","componentType":5123,"count":6,"min":[0],"max":[3],"type":"SCALAR","bufferView":1,"byteOffset":33444},{"name":"wall_positions","componentType":5126,"count":16,"min":[-26.75,0,-10],"max":[-26.04210090637207,18.479999542236328,10],"type":"VEC3","bufferView":0,"byteOffset":117216},{"name":"wall_normals","componentType":5126,"count":16,"min":[0,-1,-1],"max":[0,1,1],"type":"VEC3","bufferView":0,"byteOffset":362592},{"name":"wall_0_indices","componentType":5123,"count":24,"min":[0],"max":[15],"type":"SCALAR","bufferView":1,"byteOffset":33456},{"name":"glass2_1_positions","componentType":5126,"count":4,"min":[26.04210090637207,0,-10],"max":[26.04210090637207,18.479999542236328,10],"type":"VEC3","bufferView":0,"byteOffset":117408},{"name":"glass2_1_normals","componentType":5126,"count":4,"min":[1,0,0],"max":[1,0,0],"type":"VEC3","bufferView":0,"byteOffset":362784},{"name":"glass2_1_0_indices","componentType":5123,"count":6,"min":[0],"max":[3],"type":"SCALAR","bufferView":1,"byteOffset":33504},{"name":"wall_1_positions","componentType":5126,"count":16,"min":[26.04210090637207,0,-10],"max":[26.75,18.479999542236328,10],"type":"VEC3","bufferView":0,"byteOffset":117456},{"name":"wall_1_normals","componentType":5126,"count":16,"min":[0,-1,-1],"max":[0,1,1],"type":"VEC3","bufferView":0,"byteOffset":362832},{"name":"wall_1_0_indices","componentType":5123,"count":24,"min":[0],"max":[15],"type":"SCALAR","bufferView":1,"byteOffset":33516},{"name":"glass2_2_positions","componentType":5126,"count":4,"min":[-10,0,26.04210090637207],"max":[10,18.479999542236328,26.04210090637207],"type":"VEC3","bufferView":0,"byteOffset":117648},{"name":"glass2_2_normals","componentType":5126,"count":4,"min":[0,0,1],"max":[0,0,1],"type":"VEC3","bufferView":0,"byteOffset":363024},{"name":"glass2_2_0_indices","componentType":5123,"count":6,"min":[0],"max":[3],"type":"SCALAR","bufferView":1,"byteOffset":33564},{"name":"wall_2_positions","componentType":5126,"count":16,"min":[-10,0,26.04210090637207],"max":[10,18.479999542236328,26.75],"type":"VEC3","bufferView":0,"byteOffset":117696},{"name":"wall_2_normals","componentType":5126,"count":16,"min":[-1,-1,0],"max":[1,1,0],"type":"VEC3","bufferView":0,"byteOffset":363072},{"name":"wall_2_0_indices","componentType":5123,"count":24,"min":[0],"max":[15],"type":"SCALAR","bufferView":1,"byteOffset":33576},{"name":"glass2_3_positions","componentType":5126,"count":4,"min":[-10,0,-26.04210090637207],"max":[10,18.479999542236328,-26.04210090637207],"type":"VEC3","bufferView":0,"byteOffset":117888},{"name":"glass2_3_normals","componentType":5126,"count":4,"min":[0,0,-1],"max":[0,0,-1],"type":"VEC3","bufferView":0,"byteOffset":363264},{"name":"glass2_3_0_indices","componentType":5123,"count":6,"min":[0],"max":[3],"type":"SCALAR","bufferView":1,"byteOffset":33624},{"name":"wall_3_positions","componentType":5126,"count":16,"min":[-10,0,-26.75],"max":[10,18.479999542236328,-26.04210090637207],"type":"VEC3","bufferView":0,"byteOffset":117936},{"name":"wall_3_normals","componentType":5126,"count":16,"min":[-1,-1,0],"max":[1,1,0],"type":"VEC3","bufferView":0,"byteOffset":363312},{"name":"wall_3_0_indices","componentType":5123,"count":24,"min":[0],"max":[15],"type":"SCALAR","bufferView":1,"byteOffset":33636},{"name":"glass_5_positions","componentType":5126,"count":73,"min":[-26.75,0,-26.75],"max":[26.75,63,26.75],"type":"VEC3","bufferView":0,"byteOffset":118128},{"name":"glass_5_normals","componentType":5126,"count":48,"min":[-1,0,-1],"max":[1,0,1],"type":"VEC3","bufferView":0,"byteOffset":363504},{"name":"glass_5_0_indices","componentType":5123,"count":120,"min":[0],"max":[72],"type":"SCALAR","bufferView":1,"byteOffset":33684},{"name":"lattice_5_positions","componentType":5126,"count":252,"min":[-26.299999237060547,0,-8.149999618530273],"max":[-26.049999237060547,18.479999542236328,8.149999618530273],"type":"VEC3","bufferView":0,"byteOffset":119004},{"name":"lattice_5_normals","componentType":5126,"count":252,"min":[-1,-1,-1],"max":[1,0,1],"type":"VEC3","bufferView":0,"byteOffset":364080},{"name":"lattice_5_0_indices","componentType":5123,"count":432,"min":[0],"max":[251],"type":"SCALAR","bufferView":1,"byteOffset":33924},{"name":"glass_6_positions","componentType":5126,"count":25,"min":[26.040000915527344,0,-8],"max":[26.040000915527344,0,8],"type":"VEC3","bufferView":0,"byteOffset":122028},{"name":"glass_6_0_indices","componentType":5123,"count":48,"min":[0],"max":[24],"type":"SCALAR","bufferView":1,"byteOffset":34788},{"name":"lattice_6_positions","componentType":5126,"count":252,"min":[26.040000915527344,0,-8.149999618530273],"max":[26.290000915527344,18.479999542236328,8.149999618530273],"type":"VEC3","bufferView":0,"byteOffset":122328},{"name":"lattice_6_normals","componentType":5126,"count":252,"min":[-1,-1,-1],"max":[1,0,1],"type":"VEC3","bufferView":0,"byteOffset":367104},{"name":"lattice_6_0_indices","componentType":5123,"count":432,"min":[0],"max":[251],"type":"SCALAR","bufferView":1,"byteOffset":34884},{"name":"glass_7_positions","componentType":5126,"count":25,"min":[-8,0,26.049999237060547],"max":[8,0,26.049999237060547],"type":"VEC3","bufferView":0,"byteOffset":125352},{"name":"glass_7_0_indices","componentType":5123,"count":48,"min":[0],"max":[24],"type":"SCALAR","bufferView":1,"byteOffset":35748},{"name":"lattice_7_positions","componentType":5126,"count":252,"min":[-8.149999618530273,0,26.049999237060547],"max":[8.149999618530273,18.479999542236328,26.299999237060547],"type":"VEC3","bufferView":0,"byteOffset":125652},{"name":"lattice_7_normals","componentType":5126,"count":252,"min":[-1,-1,-1],"max":[1,0,1],"type":"VEC3","bufferView":0,"byteOffset":370128},{"name":"lattice_7_0_indices","componentType":5123,"count":432,"min":[0],"max":[251],"type":"SCALAR","bufferView":1,"byteOffset":35844},{"name":"glass_8_positions","componentType":5126,"count":25,"min":[-8,0,-26.040000915527344],"max":[8,0,-26.040000915527344],"type":"VEC3","bufferView":0,"byteOffset":128676},{"name":"glass_8_0_indices","componentType":5123,"count":48,"min":[0],"max":[24],"type":"SCALAR","bufferView":1,"byteOffset":36708},{"name":"lattice_8_positions","componentType":5126,"count":252,"min":[-8.149999618530273,0,-26.290000915527344],"max":[8.149999618530273,18.479999542236328,-26.040000915527344],"type":"VEC3","bufferView":0,"byteOffset":128976},{"name":"lattice_8_normals","componentType":5126,"count":252,"min":[-1,-1,-1],"max":[1,0,1],"type":"VEC3","bufferView":0,"byteOffset":373152},{"name":"lattice_8_0_indices","componentType":5123,"count":432,"min":[0],"max":[251],"type":"SCALAR","bufferView":1,"byteOffset":36804},{"name":"tower_positions","componentType":5126,"count":2752,"min":[-17.700000762939453,459.20001220703125,-17.549999237060547],"max":[17.700000762939453,589.2000122070312,17.549999237060547],"type":"VEC3","bufferView":0,"byteOffset":132000},{"name":"tower_normals","componentType":5126,"count":2752,"min":[-1,-1,-1],"max":[1,1,1],"type":"VEC3","bufferView":0,"byteOffset":376176},{"name":"tower_0_indices","componentType":5123,"count":5322,"min":[0],"max":[2751],"type":"SCALAR","bufferView":1,"byteOffset":37668},{"name":"lattice_9_positions","componentType":5126,"count":5796,"min":[-27,64,-27],"max":[27,462,27],"type":"VEC3","bufferView":0,"byteOffset":165024},{"name":"lattice_9_normals","componentType":5126,"count":4152,"min":[-1,-1,-1],"max":[1,0.06689249724149704,1],"type":"VEC3","bufferView":0,"byteOffset":409200},{"name":"lattice_9_0_indices","componentType":5123,"count":12816,"min":[0],"max":[5795],"type":"SCALAR","bufferView":1,"byteOffset":48312},{"name":"slab_1_positions","componentType":5126,"count":1540,"min":[-26.75,0,-26.75],"max":[26.75,456.1199951171875,26.75],"type":"VEC3","bufferView":0,"byteOffset":234576},{"name":"slab_1_normals","componentType":5126,"count":1540,"min":[-0.7063199877738953,-0.04716239869594574,-0.7063199877738953],"max":[0.7063199877738953,1,0.7063199877738953],"type":"VEC3","bufferView":0,"byteOffset":459024},{"name":"slab_1_0_indices","componentType":5123,"count":2310,"min":[0],"max":[1539],"type":"SCALAR","bufferView":1,"byteOffset":73944}],"asset":{"generator":"obj2gltf","version":"2.0"},"buffers":[{"name":"1wtc","byteLength":556068,"uri":"data:application/octet-stream;base64,"}],"bufferViews":[{"name":"bufferView_0","buffer":0,"byteLength":477504,"byteOffset":0,"byteStride":12,"target":34962},{"name":"bufferView_1","buffer":0,"byteLength":78564,"byteOffset":477504,"target":34963}],"materials":[{"name":"base","pbrMetallicRoughness":{"baseColorFactor":[0.784314,0.784314,0.784314,1],"metallicFactor":0,"roughnessFactor":0.6},"emissiveFactor":[0,0,0],"alphaMode":"OPAQUE","doubleSided":false},{"name":"slab","pbrMetallicRoughness":{"baseColorFactor":[0.839216,0.839216,0.839216,1],"metallicFactor":0,"roughnessFactor":0.6},"emissiveFactor":[0,0,0],"alphaMode":"OPAQUE","doubleSided":false},{"name":"glass","pbrMetallicRoughness":{"baseColorFactor":[0.257301,0.347394,0.458824,0.5],"metallicFactor":0,"roughnessFactor":0.10099999999999998},"emissiveFactor":[0,0,0],"alphaMode":"BLEND","doubleSided":true},{"name":"frame","pbrMetallicRoughness":{"baseColorFactor":[0.831373,0.831373,0.831373,1],"metallicFactor":0,"roughnessFactor":1},"emissiveFactor":[0,0,0],"alphaMode":"OPAQUE","doubleSided":false},{"name":"lattice","pbrMetallicRoughness":{"baseColorFactor":[0.831373,0.831373,0.831373,1],"metallicFactor":0,"roughnessFactor":1},"emissiveFactor":[0,0,0],"alphaMode":"OPAQUE","doubleSided":false},{"name":"glass2","pbrMetallicRoughness":{"baseColorFactor":[0.223529,0.301961,0.34902,1],"metallicFactor":0,"roughnessFactor":0.6},"emissiveFactor":[0,0,0],"alphaMode":"OPAQUE","doubleSided":false},{"name":"wall","pbrMetallicRoughness":{"baseColorFactor":[0.839216,0.839216,0.839216,1],"metallicFactor":0,"roughnessFactor":0.6},"emissiveFactor":[0,0,0],"alphaMode":"OPAQUE","doubleSided":false},{"name":"tower","pbrMetallicRoughness":{"baseColorFactor":[0.831373,0.831373,0.831373,1],"metallicFactor":0,"roughnessFactor":1},"emissiveFactor":[0,0,0],"alphaMode":"OPAQUE","doubleSided":false}],"meshes":[{"name":"base","primitives":[{"attributes":{"POSITION":0,"NORMAL":1},"indices":2,"material":0,"mode":4}]},{"name":"slab","primitives":[{"attributes":{"POSITION":3,"NORMAL":4},"indices":5,"material":1,"mode":4}]},{"name":"glass","primitives":[{"attributes":{"POSITION":6,"NORMAL":7},"indices":8,"material":2,"mode":4}]},{"name":"frame","primitives":[{"attributes":{"POSITION":9,"NORMAL":10},"indices":11,"material":3,"mode":4}]},{"name":"lattice","primitives":[{"attributes":{"POSITION":12,"NORMAL":13},"indices":14,"material":4,"mode":4}]},{"name":"glass_1","primitives":[{"attributes":{"POSITION":15},"indices":16,"material":2,"mode":4}]},{"name":"lattice_1","primitives":[{"attributes":{"POSITION":17,"NORMAL":18},"indices":19,"material":4,"mode":4}]},{"name":"glass_2","primitives":[{"attributes":{"POSITION":20},"indices":21,"material":2,"mode":4}]},{"name":"lattice_2","primitives":[{"attributes":{"POSITION":22,"NORMAL":23},"indices":24,"material":4,"mode":4}]},{"name":"glass_3","primitives":[{"attributes":{"POSITION":25},"indices":26,"material":2,"mode":4}]},{"name":"lattice_3","primitives":[{"attributes":{"POSITION":27,"NORMAL":28},"indices":29,"material":4,"mode":4}]},{"name":"glass_4","primitives":[{"attributes":{"POSITION":30},"indices":31,"material":2,"mode":4}]},{"name":"lattice_4","primitives":[{"attributes":{"POSITION":32,"NORMAL":33},"indices":34,"material":4,"mode":4}]},{"name":"glass2","primitives":[{"attributes":{"POSITION":35,"NORMAL":36},"indices":37,"material":5,"mode":4}]},{"name":"wall","primitives":[{"attributes":{"POSITION":38,"NORMAL":39},"indices":40,"material":6,"mode":4}]},{"name":"glass2_1","primitives":[{"attributes":{"POSITION":41,"NORMAL":42},"indices":43,"material":5,"mode":4}]},{"name":"wall_1","primitives":[{"attributes":{"POSITION":44,"NORMAL":45},"indices":46,"material":6,"mode":4}]},{"name":"glass2_2","primitives":[{"attributes":{"POSITION":47,"NORMAL":48},"indices":49,"material":5,"mode":4}]},{"name":"wall_2","primitives":[{"attributes":{"POSITION":50,"NORMAL":51},"indices":52,"material":6,"mode":4}]},{"name":"glass2_3","primitives":[{"attributes":{"POSITION":53,"NORMAL":54},"indices":55,"material":5,"mode":4}]},{"name":"wall_3","primitives":[{"attributes":{"POSITION":56,"NORMAL":57},"indices":58,"material":6,"mode":4}]},{"name":"glass_5","primitives":[{"attributes":{"POSITION":59,"NORMAL":60},"indices":61,"material":2,"mode":4}]},{"name":"lattice_5","primitives":[{"attributes":{"POSITION":62,"NORMAL":63},"indices":64,"material":4,"mode":4}]},{"name":"glass_6","primitives":[{"attributes":{"POSITION":65},"indices":66,"material":2,"mode":4}]},{"name":"lattice_6","primitives":[{"attributes":{"POSITION":67,"NORMAL":68},"indices":69,"material":4,"mode":4}]},{"name":"glass_7","primitives":[{"attributes":{"POSITION":70},"indices":71,"material":2,"mode":4}]},{"name":"lattice_7","primitives":[{"attributes":{"POSITION":72,"NORMAL":73},"indices":74,"material":4,"mode":4}]},{"name":"glass_8","primitives":[{"attributes":{"POSITION":75},"indices":76,"material":2,"mode":4}]},{"name":"lattice_8","primitives":[{"attributes":{"POSITION":77,"NORMAL":78},"indices":79,"material":4,"mode":4}]},{"name":"tower","primitives":[{"attributes":{"POSITION":80,"NORMAL":81},"indices":82,"material":7,"mode":4}]},{"name":"lattice_9","primitives":[{"attributes":{"POSITION":83,"NORMAL":84},"indices":85,"material":4,"mode":4}]},{"name":"slab_1","primitives":[{"attributes":{"POSITION":86,"NORMAL":87},"indices":88,"material":1,"mode":4}]}],"nodes":[{"name":"1wtc.obj","children":[1,2,3,4,5,6,7,8,9,10,11,12,13,14,15,16,17,18,19,20,21,22,23,24,25,26,27,28,29,30,31,32]},{"name":"base","mesh":0},{"name":"slab","mesh":1},{"name":"glass","mesh":2},{"name":"frame","mesh":3},{"name":"lattice","mesh":4},{"name":"glass_1","mesh":5},{"name":"lattice_1","mesh":6},{"name":"glass_2","mesh":7},{"name":"lattice_2","mesh":8},{"name":"glass_3","mesh":9},{"name":"lattice_3","mesh":10},{"name":"glass_4","mesh":11},{"name":"lattice_4","mesh":12},{"name":"glass2","mesh":13},{"name":"wall","mesh":14},{"name":"glass2_1","mesh":15},{"name":"wall_1","mesh":16},{"name":"glass2_2","mesh":17},{"name":"wall_2","mesh":18},{"name":"glass2_3","mesh":19},{"name":"wall_3","mesh":20},{"name":"glass_5","mesh":21},{"name":"lattice_5","mesh":22},{"name":"glass_6","mesh":23},{"name":"lattice_6","mesh":24},{"name":"glass_7","mesh":25},{"name":"lattice_7","mesh":26},{"name":"glass_8","mesh":27},{"name":"lattice_8","mesh":28},{"name":"tower","mesh":29},{"name":"lattice_9","mesh":30},{"name":"slab_1","mesh":31}],"scene":0,"scenes":[{"nodes":[0]}]}
