{
  "asset": {
    "version": "2.0",
    "generator": "THREE.GLTFExporter"
  },
  "scenes": [
    {
      "nodes": [
        7
      ],
      "name": "AuxScene"
    }
  ],
  "scene": 0,
  "nodes": [
    {
      "name": "Cylinder038",
      "mesh": 0
    },
    {
      "name": "Cylinder037",
      "mesh": 1
    },
    {
      "name": "Line030",
      "mesh": 2
    },
    {
      "name": "Line029",
      "mesh": 3
    },
    {
      "name": "Cylinder036",
      "mesh": 4
    },
    {
      "name": "Series_245_Contempo",
      "mesh": 5
    },
    {
      "name": "Object039",
      "mesh": 6
    },
    {
      "children": [
        0,
        1,
        2,
        3,
        4,
        5,
        6
      ]
    }
  ],
  "bufferViews": [
    {
      "buffer": 0,
      "byteOffset": 0,
      "byteLength": 2160,
      "target": 34962,
      "byteStride": 12
    },
    {
      "buffer": 0,
      "byteOffset": 2160,
      "byteLength": 2160,
      "target": 34962,
      "byteStride": 12
    },
    {
      "buffer": 0,
      "byteOffset": 4320,
      "byteLength": 1440,
      "target": 34962,
      "byteStride": 8
    },
    {
      "buffer": 0,
      "byteOffset": 5760,
      "byteLength": 360,
      "target": 34963
    },
    {
      "buffer": 0,
      "byteOffset": 6120,
      "byteLength": 13824,
      "target": 34962,
      "byteStride": 12
    },
    {
      "buffer": 0,
      "byteOffset": 19944,
      "byteLength": 13824,
      "target": 34962,
      "byteStride": 12
    },
    {
      "buffer": 0,
      "byteOffset": 33768,
      "byteLength": 9216,
      "target": 34962,
      "byteStride": 8
    },
    {
      "buffer": 0,
      "byteOffset": 42984,
      "byteLength": 2304,
      "target": 34963
    },
    {
      "buffer": 0,
      "byteOffset": 45288,
      "byteLength": 144000,
      "target": 34962,
      "byteStride": 12
    },
    {
      "buffer": 0,
      "byteOffset": 189288,
      "byteLength": 144000,
      "target": 34962,
      "byteStride": 12
    },
    {
      "buffer": 0,
      "byteOffset": 333288,
      "byteLength": 96000,
      "target": 34962,
      "byteStride": 8
    },
    {
      "buffer": 0,
      "byteOffset": 429288,
      "byteLength": 24000,
      "target": 34963
    },
    {
      "buffer": 0,
      "byteOffset": 453288,
      "byteLength": 24192,
      "target": 34962,
      "byteStride": 12
    },
    {
      "buffer": 0,
      "byteOffset": 477480,
      "byteLength": 24192,
      "target": 34962,
      "byteStride": 12
    },
    {
      "buffer": 0,
      "byteOffset": 501672,
      "byteLength": 16128,
      "target": 34962,
      "byteStride": 8
    },
    {
      "buffer": 0,
      "byteOffset": 517800,
      "byteLength": 4032,
      "target": 34963
    },
    {
      "buffer": 0,
      "byteOffset": 521832,
      "byteLength": 103680,
      "target": 34962,
      "byteStride": 12
    },
    {
      "buffer": 0,
      "byteOffset": 625512,
      "byteLength": 103680,
      "target": 34962,
      "byteStride": 12
    },
    {
      "buffer": 0,
      "byteOffset": 729192,
      "byteLength": 69120,
      "target": 34962,
      "byteStride": 8
    },
    {
      "buffer": 0,
      "byteOffset": 798312,
      "byteLength": 17280,
      "target": 34963
    },
    {
      "buffer": 0,
      "byteOffset": 815592,
      "byteLength": 156024,
      "target": 34962,
      "byteStride": 12
    },
    {
      "buffer": 0,
      "byteOffset": 971616,
      "byteLength": 156024,
      "target": 34962,
      "byteStride": 12
    },
    {
      "buffer": 0,
      "byteOffset": 1127640,
      "byteLength": 104016,
      "target": 34962,
      "byteStride": 8
    },
    {
      "buffer": 0,
      "byteOffset": 1231656,
      "byteLength": 26004,
      "target": 34963
    },
    {
      "buffer": 0,
      "byteOffset": 1257660,
      "byteLength": 20160,
      "target": 34962,
      "byteStride": 12
    },
    {
      "buffer": 0,
      "byteOffset": 1277820,
      "byteLength": 20160,
      "target": 34962,
      "byteStride": 12
    },
    {
      "buffer": 0,
      "byteOffset": 1297980,
      "byteLength": 13440,
      "target": 34962,
      "byteStride": 8
    },
    {
      "buffer": 0,
      "byteOffset": 1311420,
      "byteLength": 3360,
      "target": 34963
    }
  ],
  "buffers": [
    {
      "byteLength": 1314780,
      "uri": "data:application/octet-stream;base64,"
    }
  ],
  "accessors": [
    {
      "bufferView": 0,
      "componentType": 5126,
      "count": 180,
      "max": [
        54.08060073852539,
        2922.14453125,
        54.080501556396484
      ],
      "min": [
        -54.080501556396484,
        1078.536376953125,
        -54.080501556396484
      ],
      "type": "VEC3"
    },
    {
      "bufferView": 1,
      "componentType": 5126,
      "count": 180,
      "max": [
        0.9962000250816345,
        1,
        0.9962000250816345
      ],
      "min": [
        -0.9962000250816345,
        -1,
        -0.9962000250816345
      ],
      "type": "VEC3"
    },
    {
      "bufferView": 2,
      "componentType": 5126,
      "count": 180,
      "max": [
        1,
        6.261300086975098
      ],
      "min": [
        0,
        -5.261300086975098
      ],
      "type": "VEC2"
    },
    {
      "bufferView": 3,
      "componentType": 5123,
      "count": 180,
      "max": [
        179
      ],
      "min": [
        0
      ],
      "type": "SCALAR"
    },
    {
      "bufferView": 4,
      "componentType": 5126,
      "count": 1152,
      "max": [
        68.96399688720703,
        2947.019287109375,
        68.96399688720703
      ],
      "min": [
        -68.96399688720703,
        2922.14501953125,
        -68.96399688720703
      ],
      "type": "VEC3"
    },
    {
      "bufferView": 5,
      "componentType": 5126,
      "count": 1152,
      "max": [
        0.9943000078201294,
        1,
        0.9943000078201294
      ],
      "min": [
        -0.9943000078201294,
        -1,
        -0.9943000078201294
      ],
      "type": "VEC3"
    },
    {
      "bufferView": 6,
      "componentType": 5126,
      "count": 1152,
      "max": [
        1.0625,
        0.954800009727478
      ],
      "min": [
        -0.25,
        0.04520000144839287
      ],
      "type": "VEC2"
    },
    {
      "bufferView": 7,
      "componentType": 5123,
      "count": 1152,
      "max": [
        1151
      ],
      "min": [
        0
      ],
      "type": "SCALAR"
    },
    {
      "bufferView": 8,
      "componentType": 5126,
      "count": 12000,
      "max": [
        204.7144012451172,
        480.5918884277344,
        204.7144012451172
      ],
      "min": [
        -204.7144012451172,
        0,
        -204.7144012451172
      ],
      "type": "VEC3"
    },
    {
      "bufferView": 9,
      "componentType": 5126,
      "count": 12000,
      "max": [
        0.996399998664856,
        1,
        0.996399998664856
      ],
      "min": [
        -0.996399998664856,
        -1,
        -0.996399998664856
      ],
      "type": "VEC3"
    },
    {
      "bufferView": 10,
      "componentType": 5126,
      "count": 12000,
      "max": [
        1,
        1.083899974822998
      ],
      "min": [
        -0.062199998646974564,
        -0.08370000123977661
      ],
      "type": "VEC2"
    },
    {
      "bufferView": 11,
      "componentType": 5123,
      "count": 12000,
      "max": [
        11999
      ],
      "min": [
        0
      ],
      "type": "SCALAR"
    },
    {
      "bufferView": 12,
      "componentType": 5126,
      "count": 2016,
      "max": [
        106.41699981689453,
        1078.5364990234375,
        106.41699981689453
      ],
      "min": [
        -106.41699981689453,
        959.3917846679688,
        -106.41699981689453
      ],
      "type": "VEC3"
    },
    {
      "bufferView": 13,
      "componentType": 5126,
      "count": 2016,
      "max": [
        0.9962000250816345,
        1,
        0.9962000250816345
      ],
      "min": [
        -0.9962000250816345,
        -1,
        -0.9962000250816345
      ],
      "type": "VEC3"
    },
    {
      "bufferView": 14,
      "componentType": 5126,
      "count": 2016,
      "max": [
        1,
        0.9524999856948853
      ],
      "min": [
        -0.062300000339746475,
        0.04749999940395355
      ],
      "type": "VEC2"
    },
    {
      "bufferView": 15,
      "componentType": 5123,
      "count": 2016,
      "max": [
        2015
      ],
      "min": [
        0
      ],
      "type": "SCALAR"
    },
    {
      "bufferView": 16,
      "componentType": 5126,
      "count": 8640,
      "max": [
        84.64949798583984,
        959.3922119140625,
        84.39080047607422
      ],
      "min": [
        -84.64949798583984,
        479.3304138183594,
        -84.39080047607422
      ],
      "type": "VEC3"
    },
    {
      "bufferView": 17,
      "componentType": 5126,
      "count": 8640,
      "max": [
        0.9997000098228455,
        1,
        1
      ],
      "min": [
        -0.9997000098228455,
        -1,
        -1
      ],
      "type": "VEC3"
    },
    {
      "bufferView": 18,
      "componentType": 5126,
      "count": 8640,
      "max": [
        1.0190999507904053,
        1.222599983215332
      ],
      "min": [
        0,
        -0.21879999339580536
      ],
      "type": "VEC2"
    },
    {
      "bufferView": 19,
      "componentType": 5123,
      "count": 8640,
      "max": [
        8639
      ],
      "min": [
        0
      ],
      "type": "SCALAR"
    },
    {
      "bufferView": 20,
      "componentType": 5126,
      "count": 13002,
      "max": [
        279.6156005859375,
        3443.372314453125,
        279.6156005859375
      ],
      "min": [
        -279.6156005859375,
        2937.603271484375,
        -279.6156005859375
      ],
      "type": "VEC3"
    },
    {
      "bufferView": 21,
      "componentType": 5126,
      "count": 13002,
      "max": [
        0.9987999796867371,
        1,
        0.9961000084877014
      ],
      "min": [
        -0.9994000196456909,
        -1,
        -0.9961000084877014
      ],
      "type": "VEC3"
    },
    {
      "bufferView": 22,
      "componentType": 5126,
      "count": 13002,
      "max": [
        1.9021999835968018,
        1.9021999835968018
      ],
      "min": [
        -0.9021999835968018,
        -0.9021999835968018
      ],
      "type": "VEC2"
    },
    {
      "bufferView": 23,
      "componentType": 5123,
      "count": 13002,
      "max": [
        13001
      ],
      "min": [
        0
      ],
      "type": "SCALAR"
    },
    {
      "bufferView": 24,
      "componentType": 5126,
      "count": 1680,
      "max": [
        126.59819793701172,
        3333.495361328125,
        126.59819793701172
      ],
      "min": [
        -126.59819793701172,
        3194.0693359375,
        -126.59819793701172
      ],
      "type": "VEC3"
    },
    {
      "bufferView": 25,
      "componentType": 5126,
      "count": 1680,
      "max": [
        0.9926999807357788,
        0.9965000152587891,
        0.9926999807357788
      ],
      "min": [
        -0.9926999807357788,
        -0.9965000152587891,
        -0.9926999807357788
      ],
      "type": "VEC3"
    },
    {
      "bufferView": 26,
      "componentType": 5126,
      "count": 1680,
      "max": [
        0.9994999766349792,
        0.9994999766349792
      ],
      "min": [
        0.0005000000237487257,
        0.0005000000237487257
      ],
      "type": "VEC2"
    },
    {
      "bufferView": 27,
      "componentType": 5123,
      "count": 1680,
      "max": [
        1679
      ],
      "min": [
        0
      ],
      "type": "SCALAR"
    }
  ],
  "materials": [
    {
      "pbrMetallicRoughness": {
        "metallicFactor": 0.5,
        "roughnessFactor": 0.5
      },
      "name": "wire_000000000"
    },
    {
      "pbrMetallicRoughness": {
        "metallicFactor": 0.5,
        "roughnessFactor": 0.5
      },
      "name": "wire_086086086"
    }
  ],
  "meshes": [
    {
      "primitives": [
        {
          "mode": 4,
          "attributes": {
            "POSITION": 0,
            "NORMAL": 1,
            "TEXCOORD_0": 2
          },
          "indices": 3,
          "material": 0
        }
      ]
    },
    {
      "primitives": [
        {
          "mode": 4,
          "attributes": {
            "POSITION": 4,
            "NORMAL": 5,
            "TEXCOORD_0": 6
          },
          "indices": 7,
          "material": 0
        }
      ]
    },
    {
      "primitives": [
        {
          "mode": 4,
          "attributes": {
            "POSITION": 8,
            "NORMAL": 9,
            "TEXCOORD_0": 10
          },
          "indices": 11,
          "material": 0
        }
      ]
    },
    {
      "primitives": [
        {
          "mode": 4,
          "attributes": {
            "POSITION": 12,
            "NORMAL": 13,
            "TEXCOORD_0": 14
          },
          "indices": 15,
          "material": 0
        }
      ]
    },
    {
      "primitives": [
        {
          "mode": 4,
          "attributes": {
            "POSITION": 16,
            "NORMAL": 17,
            "TEXCOORD_0": 18
          },
          "indices": 19,
          "material": 0
        }
      ]
    },
    {
      "primitives": [
        {
          "mode": 4,
          "attributes": {
            "POSITION": 20,
            "NORMAL": 21,
            "TEXCOORD_0": 22
          },
          "indices": 23,
          "material": 1
        }
      ]
    },
    {
      "primitives": [
        {
          "mode": 4,
          "attributes": {
            "POSITION": 24,
            "NORMAL": 25,
            "TEXCOORD_0": 26
          },
          "indices": 27,
          "material": 1
        }
      ]
    }
  ]
}