{"accessors":[{"name":"AB17_OBJ_01_1_positions","componentType":5126,"count":2620,"min":[-408,156,207],"max":[444,1116,291],"type":"VEC3","bufferView":0,"byteOffset":0},{"name":"AB17_OBJ_01_1_texcoords","componentType":5126,"count":2620,"min":[0,0],"max":[1,1],"type":"VEC2","bufferView":1,"byteOffset":0},{"name":"AB17_OBJ_01_1_0_indices","componentType":5123,"count":7164,"min":[0],"max":[2619],"type":"SCALAR","bufferView":2,"byteOffset":0},{"name":"AB17_OBJ_02_1_positions","componentType":5126,"count":2202,"min":[384,144,-339],"max":[480,1116,267.0000915527344],"type":"VEC3","bufferView":0,"byteOffset":31440},{"name":"AB17_OBJ_02_1_texcoords","componentType":5126,"count":2202,"min":[0,0],"max":[1,1],"type":"VEC2","bufferView":1,"byteOffset":20960},{"name":"AB17_OBJ_02_1_0_indices","componentType":5123,"count":6516,"min":[0],"max":[2201],"type":"SCALAR","bufferView":2,"byteOffset":14328},{"name":"AB17_OBJ_03_1_positions","componentType":5126,"count":2043,"min":[-444,144,-339.0000915527344],"max":[-384,1116,267],"type":"VEC3","bufferView":0,"byteOffset":57864},{"name":"AB17_OBJ_03_1_texcoords","componentType":5126,"count":2043,"min":[0,0],"max":[1,1],"type":"VEC2","bufferView":1,"byteOffset":38576},{"name":"AB17_OBJ_03_1_0_indices","componentType":5123,"count":6084,"min":[0],"max":[2042],"type":"SCALAR","bufferView":2,"byteOffset":27360},{"name":"AB17_OBJ_04_1_positions","componentType":5126,"count":2682,"min":[-444,156,-405.0000915527344],"max":[480,1116,-339],"type":"VEC3","bufferView":0,"byteOffset":82380},{"name":"AB17_OBJ_04_1_texcoords","componentType":5126,"count":2682,"min":[0,0],"max":[1,1],"type":"VEC2","bufferView":1,"byteOffset":54920},{"name":"AB17_OBJ_04_1_0_indices","componentType":5123,"count":7200,"min":[0],"max":[2681],"type":"SCALAR","bufferView":2,"byteOffset":39528},{"name":"AB17_OBJ_05_1_positions","componentType":5126,"count":1536,"min":[-444,144,-405.0000915527344],"max":[480,996,273],"type":"VEC3","bufferView":0,"byteOffset":114564},{"name":"AB17_OBJ_05_1_texcoords","componentType":5126,"count":1536,"min":[-38,-35],"max":[39,36],"type":"VEC2","bufferView":1,"byteOffset":76376},{"name":"AB17_OBJ_05_1_0_indices","componentType":5123,"count":2976,"min":[0],"max":[1535],"type":"SCALAR","bufferView":2,"byteOffset":53928},{"name":"AB17_OBJ_06_1_positions","componentType":5126,"count":1369,"min":[-456,12,-405.0000915527344],"max":[492,144,273],"type":"VEC3","bufferView":0,"byteOffset":132996},{"name":"AB17_OBJ_06_1_texcoords","componentType":5126,"count":1369,"min":[-457.4997863769531,-403.2499084472656],"max":[466.5002136230469,250.75010681152344],"type":"VEC2","bufferView":1,"byteOffset":88664},{"name":"AB17_OBJ_06_1_0_indices","componentType":5123,"count":3204,"min":[0],"max":[1368],"type":"SCALAR","bufferView":2,"byteOffset":59880},{"name":"AB17_OBJ_07_1_positions","componentType":5126,"count":3122,"min":[-564,0,477],"max":[564,120,525],"type":"VEC3","bufferView":0,"byteOffset":149424},{"name":"AB17_OBJ_07_1_texcoords","componentType":5126,"count":3122,"min":[-46.5,-4.5],"max":[47.5,5.5],"type":"VEC2","bufferView":1,"byteOffset":99616},{"name":"AB17_OBJ_07_1_0_indices","componentType":5123,"count":1860,"min":[0],"max":[2163],"type":"SCALAR","bufferView":2,"byteOffset":66288},{"name":"AB17_OBJ_07_1_1_indices","componentType":5123,"count":2988,"min":[452],"max":[3121],"type":"SCALAR","bufferView":2,"byteOffset":70008},{"name":"AB17_OBJ_08_1_positions","componentType":5126,"count":6192,"min":[-456,182,-417.0000915527344],"max":[492,1116,285.0000915527344],"type":"VEC3","bufferView":0,"byteOffset":186888},{"name":"AB17_OBJ_08_1_texcoords","componentType":5126,"count":6192,"min":[0,0],"max":[1,1],"type":"VEC2","bufferView":1,"byteOffset":124592},{"name":"AB17_OBJ_08_1_0_indices","componentType":5123,"count":11808,"min":[0],"max":[6191],"type":"SCALAR","bufferView":2,"byteOffset":75984},{"name":"AB17_OBJ_09_1_positions","componentType":5126,"count":9640,"min":[-444,156,-405.0000915527344],"max":[480.0002136230469,1200,273.0000915527344],"type":"VEC3","bufferView":0,"byteOffset":261192},{"name":"AB17_OBJ_09_1_texcoords","componentType":5126,"count":9640,"min":[0,0],"max":[1,1],"type":"VEC2","bufferView":1,"byteOffset":174128},{"name":"AB17_OBJ_09_1_0_indices","componentType":5123,"count":43368,"min":[0],"max":[9639],"type":"SCALAR","bufferView":2,"byteOffset":99600},{"name":"AB17_OBJ_09_1_1_indices","componentType":5123,"count":10404,"min":[16],"max":[9495],"type":"SCALAR","bufferView":2,"byteOffset":186336},{"name":"AB17_OBJ_10_1_positions","componentType":5126,"count":4352,"min":[-390,156,-345.0002136230469],"max":[426,1080,213.00010681152344],"type":"VEC3","bufferView":0,"byteOffset":376872},{"name":"AB17_OBJ_10_1_texcoords","componentType":5126,"count":4352,"min":[0,0],"max":[1,1],"type":"VEC2","bufferView":1,"byteOffset":251248},{"name":"AB17_OBJ_10_1_0_indices","componentType":5123,"count":19776,"min":[0],"max":[4351],"type":"SCALAR","bufferView":2,"byteOffset":207144},{"name":"AB17_OBJ_10_1_1_indices","componentType":5123,"count":4032,"min":[16],"max":[4335],"type":"SCALAR","bufferView":2,"byteOffset":246696},{"name":"AB17_OBJ_11_1_positions","componentType":5126,"count":12505,"min":[-444.0000915527344,144,-405.0002136230469],"max":[480.0000915527344,1116,105],"type":"VEC3","bufferView":0,"byteOffset":429096},{"name":"AB17_OBJ_11_1_texcoords","componentType":5126,"count":12505,"min":[-38,-40],"max":[39,41],"type":"VEC2","bufferView":1,"byteOffset":286064},{"name":"AB17_OBJ_11_1_0_indices","componentType":5123,"count":13716,"min":[48],"max":[12480],"type":"SCALAR","bufferView":2,"byteOffset":254760},{"name":"AB17_OBJ_11_1_1_indices","componentType":5123,"count":5448,"min":[0],"max":[12504],"type":"SCALAR","bufferView":2,"byteOffset":282192},{"name":"AB17_OBJ_12_1_positions","componentType":5126,"count":16,"min":[-564,0,-525],"max":[564,84,477],"type":"VEC3","bufferView":0,"byteOffset":579156},{"name":"AB17_OBJ_12_1_texcoords","componentType":5126,"count":16,"min":[0,0],"max":[1,1],"type":"VEC2","bufferView":1,"byteOffset":386104},{"name":"AB17_OBJ_12_1_0_indices","componentType":5123,"count":84,"min":[0],"max":[15],"type":"SCALAR","bufferView":2,"byteOffset":293088},{"name":"AB17_OBJ_13_1_positions","componentType":5126,"count":128,"min":[-564,0,-525],"max":[564,12,525],"type":"VEC3","bufferView":0,"byteOffset":579348},{"name":"AB17_OBJ_13_1_texcoords","componentType":5126,"count":128,"min":[-46.5,-43.25],"max":[47.5,44.25],"type":"VEC2","bufferView":1,"byteOffset":386232},{"name":"AB17_OBJ_13_1_0_indices","componentType":5123,"count":72,"min":[0],"max":[127],"type":"SCALAR","bufferView":2,"byteOffset":293256},{"name":"AB17_OBJ_13_1_1_indices","componentType":5123,"count":162,"min":[0],"max":[123],"type":"SCALAR","bufferView":2,"byteOffset":293400},{"name":"AB17_OBJ_14_1_positions","componentType":5126,"count":1200,"min":[-386,1116,-153.00010681152344],"max":[422,1152,210.96380615234375],"type":"VEC3","bufferView":0,"byteOffset":580884},{"name":"AB17_OBJ_14_1_texcoords","componentType":5126,"count":1200,"min":[0,0],"max":[1,1],"type":"VEC2","bufferView":1,"byteOffset":387256},{"name":"AB17_OBJ_14_1_0_indices","componentType":5123,"count":2160,"min":[0],"max":[1199],"type":"SCALAR","bufferView":2,"byteOffset":293724},{"name":"AB17_OBJ_15_1_positions","componentType":5126,"count":1533,"min":[-444,1110,-405],"max":[480,1260,291.0000915527344],"type":"VEC3","bufferView":0,"byteOffset":595284},{"name":"AB17_OBJ_15_1_texcoords","componentType":5126,"count":1533,"min":[-38,-27.75],"max":[39,30.25],"type":"VEC2","bufferView":1,"byteOffset":396856},{"name":"AB17_OBJ_15_1_0_indices","componentType":5123,"count":2568,"min":[0],"max":[1532],"type":"SCALAR","bufferView":2,"byteOffset":298044},{"name":"AB17_OBJ_16_1_positions","componentType":5126,"count":80,"min":[-48,1116,81],"max":[-42,1200,117],"type":"VEC3","bufferView":0,"byteOffset":613680},{"name":"AB17_OBJ_16_1_texcoords","componentType":5126,"count":80,"min":[0,0],"max":[1,1],"type":"VEC2","bufferView":1,"byteOffset":409120},{"name":"AB17_OBJ_16_1_0_indices","componentType":5123,"count":372,"min":[0],"max":[79],"type":"SCALAR","bufferView":2,"byteOffset":303180},{"name":"AB17_OBJ_16_1_1_indices","componentType":5123,"count":36,"min":[16],"max":[23],"type":"SCALAR","bufferView":2,"byteOffset":303924},{"name":"AB17_OBJ_17_1_positions","componentType":5126,"count":384,"min":[-444,42,-345.0000915527344],"max":[480.0000915527344,96,-207],"type":"VEC3","bufferView":0,"byteOffset":614640},{"name":"AB17_OBJ_17_1_texcoords","componentType":5126,"count":384,"min":[0,0],"max":[1,1],"type":"VEC2","bufferView":1,"byteOffset":409760},{"name":"AB17_OBJ_17_1_0_indices","componentType":5123,"count":1728,"min":[0],"max":[383],"type":"SCALAR","bufferView":2,"byteOffset":303996},{"name":"AB17_OBJ_17_1_1_indices","componentType":5123,"count":432,"min":[16],"max":[367],"type":"SCALAR","bufferView":2,"byteOffset":307452},{"name":"AB17_OBJ_18_1_positions","componentType":5126,"count":240,"min":[-251.99989318847656,12,-159.00010681152344],"max":[288,96,92.9999008178711],"type":"VEC3","bufferView":0,"byteOffset":619248},{"name":"AB17_OBJ_18_1_texcoords","componentType":5126,"count":240,"min":[0,0],"max":[1,1],"type":"VEC2","bufferView":1,"byteOffset":412832},{"name":"AB17_OBJ_18_1_0_indices","componentType":5123,"count":1116,"min":[0],"max":[239],"type":"SCALAR","bufferView":2,"byteOffset":308316},{"name":"AB17_OBJ_18_1_1_indices","componentType":5123,"count":108,"min":[16],"max":[183],"type":"SCALAR","bufferView":2,"byteOffset":310548},{"name":"AB17_OBJ_19_1_positions","componentType":5126,"count":2920,"min":[-204,144,213],"max":[240,1116,273.0000915527344],"type":"VEC3","bufferView":0,"byteOffset":622128},{"name":"AB17_OBJ_19_1_texcoords","componentType":5126,"count":2920,"min":[0,0],"max":[1,1],"type":"VEC2","bufferView":1,"byteOffset":414752},{"name":"AB17_OBJ_19_1_0_indices","componentType":5123,"count":3744,"min":[20],"max":[2879],"type":"SCALAR","bufferView":2,"byteOffset":310764},{"name":"AB17_OBJ_19_1_1_indices","componentType":5123,"count":1512,"min":[0],"max":[2919],"type":"SCALAR","bufferView":2,"byteOffset":318252}],"asset":{"generator":"obj2gltf","version":"2.0"},"buffers":[{"name":"Apartment Building_17_obj","byteLength":1416556,"uri":"data:application/octet-stream;base64,"}],"bufferViews":[{"name":"bufferView_0","buffer":0,"byteLength":657168,"byteOffset":0,"byteStride":12,"target":34962},{"name":"bufferView_1","buffer":0,"byteLength":438112,"byteOffset":657168,"byteStride":8,"target":34962},{"name":"bufferView_2","buffer":0,"byteLength":321276,"byteOffset":1095280,"target":34963}],"materials":[{"name":"wire_177148027","pbrMetallicRoughness":{"baseColorFactor":[0.6941,0.5804,0.1059,1],"metallicFactor":0,"roughnessFactor":0.968},"emissiveFactor":[0,0,0],"alphaMode":"OPAQUE","doubleSided":false},{"name":"wire_229166215","pbrMetallicRoughness":{"baseColorFactor":[0.898,0.651,0.8431,1],"metallicFactor":0,"roughnessFactor":0.968},"emissiveFactor":[0,0,0],"alphaMode":"OPAQUE","doubleSided":false},{"name":"wire_228153184","pbrMetallicRoughness":{"baseColorFactor":[0.8941,0.6,0.7216,1],"metallicFactor":0,"roughnessFactor":0.968},"emissiveFactor":[0,0,0],"alphaMode":"OPAQUE","doubleSided":false},{"name":"wire_214229166","pbrMetallicRoughness":{"baseColorFactor":[0.8392,0.898,0.651,1],"metallicFactor":0,"roughnessFactor":0.968},"emissiveFactor":[0,0,0],"alphaMode":"OPAQUE","doubleSided":false},{"name":"Material","pbrMetallicRoughness":{"baseColorFactor":[0.588,0.588,0.588,1],"metallicFactor":0,"roughnessFactor":0.99},"emissiveFactor":[0,0,0],"alphaMode":"OPAQUE","doubleSided":false},{"name":"wire_006135113","pbrMetallicRoughness":{"baseColorFactor":[0.0235,0.5294,0.4431,1],"metallicFactor":0,"roughnessFactor":0.968},"emissiveFactor":[0,0,0],"alphaMode":"OPAQUE","doubleSided":false},{"name":"wire_138008110","pbrMetallicRoughness":{"baseColorFactor":[0.5412,0.0314,0.4314,1],"metallicFactor":0,"roughnessFactor":0.968},"emissiveFactor":[0,0,0],"alphaMode":"OPAQUE","doubleSided":false},{"name":"wire_166229229","pbrMetallicRoughness":{"baseColorFactor":[0.651,0.898,0.898,1],"metallicFactor":0,"roughnessFactor":0.968},"emissiveFactor":[0,0,0],"alphaMode":"OPAQUE","doubleSided":false},{"name":"wire_225143087","pbrMetallicRoughness":{"baseColorFactor":[0.8824,0.5608,0.3412,1],"metallicFactor":0,"roughnessFactor":0.968},"emissiveFactor":[0,0,0],"alphaMode":"OPAQUE","doubleSided":false}],"meshes":[{"name":"AB17_OBJ_01_1","primitives":[{"attributes":{"POSITION":0,"TEXCOORD_0":1},"indices":2,"material":0,"mode":4}]},{"name":"AB17_OBJ_02_1","primitives":[{"attributes":{"POSITION":3,"TEXCOORD_0":4},"indices":5,"material":0,"mode":4}]},{"name":"AB17_OBJ_03_1","primitives":[{"attributes":{"POSITION":6,"TEXCOORD_0":7},"indices":8,"material":0,"mode":4}]},{"name":"AB17_OBJ_04_1","primitives":[{"attributes":{"POSITION":9,"TEXCOORD_0":10},"indices":11,"material":0,"mode":4}]},{"name":"AB17_OBJ_05_1","primitives":[{"attributes":{"POSITION":12,"TEXCOORD_0":13},"indices":14,"material":1,"mode":4}]},{"name":"AB17_OBJ_06_1","primitives":[{"attributes":{"POSITION":15,"TEXCOORD_0":16},"indices":17,"material":2,"mode":4}]},{"name":"AB17_OBJ_07_1","primitives":[{"attributes":{"POSITION":18,"TEXCOORD_0":19},"indices":20,"material":3,"mode":4},{"attributes":{"POSITION":18,"TEXCOORD_0":19},"indices":21,"material":4,"mode":4}]},{"name":"AB17_OBJ_08_1","primitives":[{"attributes":{"POSITION":22,"TEXCOORD_0":23},"indices":24,"material":5,"mode":4}]},{"name":"AB17_OBJ_09_1","primitives":[{"attributes":{"POSITION":25,"TEXCOORD_0":26},"indices":27,"material":4,"mode":4},{"attributes":{"POSITION":25,"TEXCOORD_0":26},"indices":28,"material":6,"mode":4}]},{"name":"AB17_OBJ_10_1","primitives":[{"attributes":{"POSITION":29,"TEXCOORD_0":30},"indices":31,"material":4,"mode":4},{"attributes":{"POSITION":29,"TEXCOORD_0":30},"indices":32,"material":2,"mode":4}]},{"name":"AB17_OBJ_11_1","primitives":[{"attributes":{"POSITION":33,"TEXCOORD_0":34},"indices":35,"material":4,"mode":4},{"attributes":{"POSITION":33,"TEXCOORD_0":34},"indices":36,"material":7,"mode":4}]},{"name":"AB17_OBJ_12_1","primitives":[{"attributes":{"POSITION":37,"TEXCOORD_0":38},"indices":39,"material":3,"mode":4}]},{"name":"AB17_OBJ_13_1","primitives":[{"attributes":{"POSITION":40,"TEXCOORD_0":41},"indices":42,"material":2,"mode":4},{"attributes":{"POSITION":40,"TEXCOORD_0":41},"indices":43,"material":4,"mode":4}]},{"name":"AB17_OBJ_14_1","primitives":[{"attributes":{"POSITION":44,"TEXCOORD_0":45},"indices":46,"material":4,"mode":4}]},{"name":"AB17_OBJ_15_1","primitives":[{"attributes":{"POSITION":47,"TEXCOORD_0":48},"indices":49,"material":8,"mode":4}]},{"name":"AB17_OBJ_16_1","primitives":[{"attributes":{"POSITION":50,"TEXCOORD_0":51},"indices":52,"material":4,"mode":4},{"attributes":{"POSITION":50,"TEXCOORD_0":51},"indices":53,"material":2,"mode":4}]},{"name":"AB17_OBJ_17_1","primitives":[{"attributes":{"POSITION":54,"TEXCOORD_0":55},"indices":56,"material":4,"mode":4},{"attributes":{"POSITION":54,"TEXCOORD_0":55},"indices":57,"material":2,"mode":4}]},{"name":"AB17_OBJ_18_1","primitives":[{"attributes":{"POSITION":58,"TEXCOORD_0":59},"indices":60,"material":4,"mode":4},{"attributes":{"POSITION":58,"TEXCOORD_0":59},"indices":61,"material":2,"mode":4}]},{"name":"AB17_OBJ_19_1","primitives":[{"attributes":{"POSITION":62,"TEXCOORD_0":63},"indices":64,"material":4,"mode":4},{"attributes":{"POSITION":62,"TEXCOORD_0":63},"indices":65,"material":7,"mode":4}]}],"nodes":[{"name":"AB17_OBJ_01","mesh":0},{"name":"AB17_OBJ_02","mesh":1},{"name":"AB17_OBJ_03","mesh":2},{"name":"AB17_OBJ_04","mesh":3},{"name":"AB17_OBJ_05","mesh":4},{"name":"AB17_OBJ_06","mesh":5},{"name":"AB17_OBJ_07","mesh":6},{"name":"AB17_OBJ_08","mesh":7},{"name":"AB17_OBJ_09","mesh":8},{"name":"AB17_OBJ_10","mesh":9},{"name":"AB17_OBJ_11","mesh":10},{"name":"AB17_OBJ_12","mesh":11},{"name":"AB17_OBJ_13","mesh":12},{"name":"AB17_OBJ_14","mesh":13},{"name":"AB17_OBJ_15","mesh":14},{"name":"AB17_OBJ_16","mesh":15},{"name":"AB17_OBJ_17","mesh":16},{"name":"AB17_OBJ_18","mesh":17},{"name":"AB17_OBJ_19","mesh":18}],"scene":0,"scenes":[{"nodes":[0,1,2,3,4,5,6,7,8,9,10,11,12,13,14,15,16,17,18]}]}
