{"accessors":[{"name":"WallEnd_Cube.090-Mesh_positions","componentType":5126,"count":11182,"min":[-7.629109859466553,0.2999989986419678,-8.083564758300781],"max":[7.627988815307617,30.641902923583984,7.080602169036865],"type":"VEC3","bufferView":0,"byteOffset":0},{"name":"WallEnd_Cube.090-Mesh_normals","componentType":5126,"count":11182,"min":[-1,-1,-1],"max":[1,1,1],"type":"VEC3","bufferView":0,"byteOffset":134184},{"name":"WallEnd_Cube.090-Mesh_texcoords","componentType":5126,"count":11182,"min":[0,0],"max":[1,1],"type":"VEC2","bufferView":1,"byteOffset":0},{"name":"WallEnd_Cube.090-Mesh_0_indices","componentType":5123,"count":7884,"min":[0],"max":[4053],"type":"SCALAR","bufferView":2,"byteOffset":0},{"name":"WallEnd_Cube.090-Mesh_1_indices","componentType":5123,"count":9768,"min":[4054],"max":[10125],"type":"SCALAR","bufferView":2,"byteOffset":15768},{"name":"WallEnd_Cube.090-Mesh_2_indices","componentType":5123,"count":1584,"min":[10126],"max":[11181],"type":"SCALAR","bufferView":2,"byteOffset":35304}],"asset":{"generator":"obj2gltf","version":"2.0"},"buffers":[{"name":"input","byteLength":396296,"uri":"data:application/octet-stream;base64,"}],"bufferViews":[{"name":"bufferView_0","buffer":0,"byteLength":268368,"byteOffset":0,"byteStride":12,"target":34962},{"name":"bufferView_1","buffer":0,"byteLength":89456,"byteOffset":268368,"byteStride":8,"target":34962},{"name":"bufferView_2","buffer":0,"byteLength":38472,"byteOffset":357824,"target":34963}],"materials":[{"name":"ColorEdifice","pbrMetallicRoughness":{"baseColorFactor":[0.5,0.5,0.5,1],"metallicFactor":0,"roughnessFactor":1},"emissiveFactor":[0,0,0],"alphaMode":"OPAQUE","doubleSided":false},{"name":"FloorEdifice","pbrMetallicRoughness":{"baseColorFactor":[0.5,0.5,0.5,1],"metallicFactor":0,"roughnessFactor":1},"emissiveFactor":[0,0,0],"alphaMode":"OPAQUE","doubleSided":false},{"name":"Glass","pbrMetallicRoughness":{"baseColorFactor":[0.5,0.5,0.5,1],"metallicFactor":0,"roughnessFactor":1},"emissiveFactor":[0,0,0],"alphaMode":"OPAQUE","doubleSided":false}],"meshes":[{"name":"WallEnd_Cube.090-Mesh","primitives":[{"attributes":{"POSITION":0,"NORMAL":1,"TEXCOORD_0":2},"indices":3,"material":0,"mode":4},{"attributes":{"POSITION":0,"NORMAL":1,"TEXCOORD_0":2},"indices":4,"material":1,"mode":4},{"attributes":{"POSITION":0,"NORMAL":1,"TEXCOORD_0":2},"indices":5,"material":2,"mode":4}]}],"nodes":[{"name":"WallEnd_Cube.090","mesh":0}],"scene":0,"scenes":[{"nodes":[0]}]}
