{"accessors":[{"name":"EmpireState_lp_1_positions","componentType":5126,"count":1798,"min":[-8.962800025939941,0,-5.521100044250488],"max":[8.962800025939941,66.69239807128906,5.521100044250488],"type":"VEC3","bufferView":0,"byteOffset":0},{"name":"EmpireState_lp_1_normals","componentType":5126,"count":1798,"min":[-1,-1,-1],"max":[1,1,1],"type":"VEC3","bufferView":0,"byteOffset":21576},{"name":"EmpireState_lp_1_texcoords","componentType":5126,"count":1798,"min":[0.10939999669790268,0.09369999915361404],"max":[0.9218999743461609,0.8925999999046326],"type":"VEC2","bufferView":1,"byteOffset":0},{"name":"EmpireState_lp_1_0_indices","componentType":5123,"count":3546,"min":[0],"max":[1797],"type":"SCALAR","bufferView":2,"byteOffset":0}],"asset":{"generator":"obj2gltf","version":"2.0"},"buffers":[{"name":"EmpireState_lp","byteLength":68036,"uri":"data:application/octet-stream;base64,"}],"bufferViews":[{"name":"bufferView_0","buffer":0,"byteLength":43152,"byteOffset":0,"byteStride":12,"target":34962},{"name":"bufferView_1","buffer":0,"byteLength":14384,"byteOffset":43152,"byteStride":8,"target":34962},{"name":"bufferView_2","buffer":0,"byteLength":7092,"byteOffset":57536,"target":34963},{"buffer":0,"byteOffset":64628,"byteLength":3406}],"images":[{"name":"EmpireState_d","mimeType":"image/png","bufferView":3}],"materials":[{"name":"01___Default","pbrMetallicRoughness":{"baseColorTexture":{"index":0},"baseColorFactor":[1,1,1,1],"metallicFactor":0,"roughnessFactor":0.99},"emissiveFactor":[0,0,0],"alphaMode":"OPAQUE","doubleSided":false}],"meshes":[{"name":"EmpireState_lp_1","primitives":[{"attributes":{"POSITION":0,"NORMAL":1,"TEXCOORD_0":2},"indices":3,"material":0,"mode":4}]}],"nodes":[{"name":"EmpireState_lp","mesh":0}],"samplers":[{"magFilter":9729,"minFilter":9986,"wrapS":10497,"wrapT":10497}],"scene":0,"scenes":[{"nodes":[0]}],"textures":[{"name":"EmpireState_d","sampler":0,"source":0}]}
