{"accessors":[{"name":"BezierCurve-Mesh_positions","componentType":5126,"count":52,"min":[-0.008907999843358994,3.9751620292663574,-0.019999999552965164],"max":[3.1052160263061523,5.0093231201171875,0.019999999552965164],"type":"VEC3","bufferView":0,"byteOffset":0},{"name":"BezierCurve-Mesh_normals","componentType":5126,"count":52,"min":[-0.6498000025749207,-1,-1],"max":[0.6496999859809875,1,1],"type":"VEC3","bufferView":0,"byteOffset":21216},{"name":"BezierCurve-Mesh_0_indices","componentType":5123,"count":288,"min":[0],"max":[51],"type":"SCALAR","bufferView":1,"byteOffset":0},{"name":"Circle-Mesh_positions","componentType":5126,"count":1716,"min":[-0.10000000149011612,0,-0.10000000149011612],"max":[3.370300054550171,6.000000953674316,0.10000000149011612],"type":"VEC3","bufferView":0,"byteOffset":624},{"name":"Circle-Mesh_normals","componentType":5126,"count":1716,"min":[-1,-1,-1],"max":[1,1,1],"type":"VEC3","bufferView":0,"byteOffset":21840},{"name":"Circle-Mesh_0_indices","componentType":5123,"count":5226,"min":[0],"max":[1715],"type":"SCALAR","bufferView":1,"byteOffset":576}],"asset":{"generator":"obj2gltf","version":"2.0"},"buffers":[{"name":"input","byteLength":53460,"uri":"data:application/octet-stream;base64,"}],"bufferViews":[{"name":"bufferView_0","buffer":0,"byteLength":42432,"byteOffset":0,"byteStride":12,"target":34962},{"name":"bufferView_1","buffer":0,"byteLength":11028,"byteOffset":42432,"target":34963}],"materials":[{"name":"None","pbrMetallicRoughness":{"baseColorFactor":[0.5,0.5,0.5,1],"metallicFactor":0,"roughnessFactor":1},"emissiveFactor":[0,0,0],"alphaMode":"OPAQUE","doubleSided":false},{"name":"Material","pbrMetallicRoughness":{"baseColorFactor":[0.5,0.5,0.5,1],"metallicFactor":0,"roughnessFactor":1},"emissiveFactor":[0,0,0],"alphaMode":"OPAQUE","doubleSided":false}],"meshes":[{"name":"BezierCurve-Mesh","primitives":[{"attributes":{"POSITION":0,"NORMAL":1},"indices":2,"material":0,"mode":4}]},{"name":"Circle-Mesh","primitives":[{"attributes":{"POSITION":3,"NORMAL":4},"indices":5,"material":1,"mode":4}]}],"nodes":[{"name":"BezierCurve","mesh":0},{"name":"Circle","mesh":1}],"scene":0,"scenes":[{"nodes":[0,1]}]}
