{"accessors":[{"name":"Mesh55.002_Mesh55.004-Mesh_positions","componentType":5126,"count":47,"min":[1.1221319437026978,0.740090012550354,-1.5600789785385132],"max":[1.2780590057373047,2.0197439193725586,3.3287830352783203],"type":"VEC3","bufferView":0,"byteOffset":0},{"name":"Mesh55.002_Mesh55.004-Mesh_texcoords","componentType":5126,"count":47,"min":[-592.7955322265625,-142.51185607910156],"max":[0,1],"type":"VEC2","bufferView":1,"byteOffset":0},{"name":"Mesh55.002_Mesh55.004-Mesh_0_indices","componentType":5123,"count":117,"min":[0],"max":[46],"type":"SCALAR","bufferView":2,"byteOffset":0},{"name":"Mesh55.000_Mesh55.003-Mesh_positions","componentType":5126,"count":64,"min":[0.6868249773979187,4.049924850463867,0.44073399901390076],"max":[1.0005090236663818,6.012425899505615,1.327970027923584],"type":"VEC3","bufferView":0,"byteOffset":564},{"name":"Mesh55.000_Mesh55.003-Mesh_texcoords","componentType":5126,"count":64,"min":[29.09213638305664,-548.4777221679688],"max":[390.4250183105469,-348.935546875],"type":"VEC2","bufferView":1,"byteOffset":376},{"name":"Mesh55.000_Mesh55.003-Mesh_0_indices","componentType":5123,"count":96,"min":[0],"max":[63],"type":"SCALAR","bufferView":2,"byteOffset":236},{"name":"Mesh55.001-Mesh_positions","componentType":5126,"count":824,"min":[1.0929609537124634,2.2859950065612793,-1.7731930017471313],"max":[1.5223079919815063,8.820718765258789,3.4836599826812744],"type":"VEC3","bufferView":0,"byteOffset":1332},{"name":"Mesh55.001-Mesh_texcoords","componentType":5126,"count":824,"min":[-611.5037231445312,-834.017822265625],"max":[301.2320251464844,1],"type":"VEC2","bufferView":1,"byteOffset":888},{"name":"Mesh55.001-Mesh_0_indices","componentType":5123,"count":2061,"min":[0],"max":[743],"type":"SCALAR","bufferView":2,"byteOffset":428},{"name":"Mesh55.001-Mesh_1_indices","componentType":5123,"count":96,"min":[744],"max":[823],"type":"SCALAR","bufferView":2,"byteOffset":4552},{"name":"Mesh55.012-Mesh_positions","componentType":5126,"count":48874,"min":[-0.41952699422836304,0.6083019971847534,-2.501373052597046],"max":[6.302030086517334,11.130507469177246,4.270077228546143],"type":"VEC3","bufferView":0,"byteOffset":11220},{"name":"Mesh55.012-Mesh_texcoords","componentType":5126,"count":48874,"min":[-688.5039672851562,-1112.1873779296875],"max":[688.5039672851562,639.1340942382812],"type":"VEC2","bufferView":1,"byteOffset":7480},{"name":"Mesh55.012-Mesh_0_indices","componentType":5123,"count":60,"min":[48610],"max":[48873],"type":"SCALAR","bufferView":2,"byteOffset":4744},{"name":"Mesh55.012-Mesh_1_indices","componentType":5123,"count":54606,"min":[0],"max":[31348],"type":"SCALAR","bufferView":2,"byteOffset":4864},{"name":"Mesh55.012-Mesh_2_indices","componentType":5123,"count":35190,"min":[39],"max":[48824],"type":"SCALAR","bufferView":2,"byteOffset":114076}],"asset":{"generator":"obj2gltf","version":"2.0"},"buffers":[{"name":"input","byteLength":1180636,"uri":"data:application/octet-stream;base64,"}],"bufferViews":[{"name":"bufferView_0","buffer":0,"byteLength":597708,"byteOffset":0,"byteStride":12,"target":34962},{"name":"bufferView_1","buffer":0,"byteLength":398472,"byteOffset":597708,"byteStride":8,"target":34962},{"name":"bufferView_2","buffer":0,"byteLength":184456,"byteOffset":996180,"target":34963}],"materials":[{"name":"FrontCol.032","pbrMetallicRoughness":{"baseColorFactor":[0.5,0.5,0.5,1],"metallicFactor":0,"roughnessFactor":1},"emissiveFactor":[0,0,0],"alphaMode":"OPAQUE","doubleSided":false},{"name":"Foregrou.359","pbrMetallicRoughness":{"baseColorFactor":[0.5,0.5,0.5,1],"metallicFactor":0,"roughnessFactor":1},"emissiveFactor":[0,0,0],"alphaMode":"OPAQUE","doubleSided":false},{"name":"ozdoby","pbrMetallicRoughness":{"baseColorFactor":[0.5,0.5,0.5,1],"metallicFactor":0,"roughnessFactor":1},"emissiveFactor":[0,0,0],"alphaMode":"OPAQUE","doubleSided":false}],"meshes":[{"name":"Mesh55.002_Mesh55.004-Mesh","primitives":[{"attributes":{"POSITION":0,"TEXCOORD_0":1},"indices":2,"material":0,"mode":4}]},{"name":"Mesh55.000_Mesh55.003-Mesh","primitives":[{"attributes":{"POSITION":3,"TEXCOORD_0":4},"indices":5,"material":0,"mode":4}]},{"name":"Mesh55.001-Mesh","primitives":[{"attributes":{"POSITION":6,"TEXCOORD_0":7},"indices":8,"material":0,"mode":4},{"attributes":{"POSITION":6,"TEXCOORD_0":7},"indices":9,"material":1,"mode":4}]},{"name":"Mesh55.012-Mesh","primitives":[{"attributes":{"POSITION":10,"TEXCOORD_0":11},"indices":12,"material":1,"mode":4},{"attributes":{"POSITION":10,"TEXCOORD_0":11},"indices":13,"material":2,"mode":4},{"attributes":{"POSITION":10,"TEXCOORD_0":11},"indices":14,"material":0,"mode":4}]}],"nodes":[{"name":"Mesh55.002_Mesh55.004","mesh":0},{"name":"Mesh55.000_Mesh55.003","mesh":1},{"name":"Mesh55.001","mesh":2},{"name":"Mesh55.012","mesh":3}],"scene":0,"scenes":[{"nodes":[0,1,2,3]}]}
